<svg id="Layer_1" data-name="Layer 1" xmlns="http://www.w3.org/2000/svg" viewBox="0 0 809 809"><defs><style>.cls-1{fill:#fff;}</style></defs><title>tribalswirl</title><path class="cls-1" d="M783.26,760.89h-809v-809h809ZM349.56,424.27c10.48-.69,19.93,3.43,28.6,7.82,14.27,7.23,25.93,18.27,36.53,30.29,6.12,6.95,9.71,15.38,14.27,23.27a92.17,92.17,0,0,1,11.39,32.16c1.55,9.88-1.27,18.31-8.11,25.59-5.56,5.91-12.08,7.84-19.89,5.73-1.06-.29-2.43-.35-3.1.92s.31,2.21,1.08,3c10.64,11.55,23.16,19.23,39.45,19.39,5.32.06,10.29-.65,14.57-4.05,10.78-8.58,16.47-19.58,16.35-33.54-.07-8.36-3.5-15.83-5.69-23.64-5.33-19-14.93-35.77-27.61-50.79-10.81-12.82-23.12-24.22-34.54-36.47-12.57-13.48-24.36-27.74-37.57-40.55-15.84-15.36-32-30.41-48.87-44.74-5-4.28-10.23-8.41-14.72-13.39-5.29-5.89-10.92-11.48-16.17-17.44-7.19-8.17-15.59-15.27-22.37-23.83-14.16-17.88-30.83-33.87-40-55.44-5.26-12.35-8.84-24.63-5.6-38.06.26-1.11.31-2-.82-2.49s-1.94.28-2.45,1.14a16.62,16.62,0,0,0-1.38,3.18c-4.13,12.48-2.64,25,.19,37.39,5.91,25.72,24,43.92,40.08,63.28,8.29,10,18.25,18.5,23.45,31.11,3.5,8.48,5,17.16,6.52,26,2.23,13.3.61,26.51-2.76,39.4-3.24,12.35-8.9,23.91-11.69,36.49-5.36,24.15-8.08,48.43-5.1,73.05A126.44,126.44,0,0,0,292,551.28c6.22,10,14.59,18.36,22.76,26.79.89.92,2,1.46,3,.21s1.09-3-.26-4a23.55,23.55,0,0,1-5-4.77c-9.26-12.79-15-27.31-20.36-42-3.73-10.21-4.16-21.08-5.11-31.8-1.53-17.18.75-33.54,12.07-47.33,3.94-4.81,7.3-10.2,12.67-13.87C323.19,426.65,336.39,425.66,349.56,424.27ZM556.5,495c-15.39,1.25-30-1.11-43.86-8.36C492.47,476.12,479.74,460.06,475,438c-2.51-11.64-2.19-23.07,6.27-33,3.08-3.63,6-7.45,9.07-11.1a32,32,0,0,1,18.57-10.72c10.31-2.18,19.24,1.73,27.11,7.38,8.15,5.86,6.74,20.59-1.86,27.68-9.11,7.51-18.68,6.34-25.3-3.1-.38-.55-.73-1.11-1.11-1.65-.62-.89-1.42-1.49-2.52-1s-1.21,1.42-1.16,2.5c.36,7.81,9.22,18.53,16.83,19.57,10.46,1.44,20-1.18,27.2-9.14,14-15.5,11.47-43.27-7.66-55.68-18.25-11.83-43.6-4.48-57.35,5.73-7.6,5.64-13.47,12.94-18.62,20.88A57,57,0,0,0,455,422.75c-1.15,13.94,3.73,26.64,10,38.92,7.9,15.45,19,28,32.16,39.23C516,517,537.75,524.52,562.1,525.22a155,155,0,0,1,32.44,4.52C607.79,533,621.38,553.2,621,566.1c-.55,17.65-8.77,29.64-22.82,39.56-15.2,10.71-30.93,9.1-46,2.68-14.71-6.27-24.59-18.78-31.14-33.48-2-4.4-3.23-9.1-5.23-13.47a102.32,102.32,0,0,1-8.8-36c-.51-7.59-4.65-13.52-11-15.73-1.28-.44-2.79-1.13-3.62.25-.93,1.54.7,2.37,1.7,3.11,4.82,3.56,6.8,8.41,6.67,14.26-.07,3.49-.11,7-.19,10.47a168.62,168.62,0,0,0,2.77,33.61c1.54,8.71,3.43,17.19,7.33,25.16,5,10.18,12.29,18.46,20.78,25.84,9.85,8.57,21.62,14,34.16,15.06C585.27,639,603,632,617.19,618.18c12.34-12,19.72-27.57,24.62-43.88,5.74-19.09,4.07-37.71-6.49-55.22-8.41-13.94-20.63-22-36.57-23.62A221.67,221.67,0,0,0,556.5,495Zm-355.44-69.2a47.75,47.75,0,0,1-16.94-1.24c-15-4-25.47-14.44-36-24.84-7.63-7.51-9.48-17.66-13.07-27.09-2.49-6.54-1.45-12.35,1.42-18.24.87-1.79,1.64-3.62,2.55-5.38.45-.88,1.29-1.7.17-2.58-.94-.75-1.9-.15-2.81.21-6.86,2.71-13.77,13.3-14.41,20.7-1.21,14,5.24,25.6,11.58,37,8.93,16,22.21,27.94,38.19,36.85,14.78,8.24,30.15,13.33,47.22,8.42,7.79-2.25,16-3.57,22.92-8.1a98.69,98.69,0,0,0,23.79-22.34c11-14.17,18.12-29.91,19.17-48.16.93-16.12-1.49-31.53-9.12-45.81-5.93-11.13-12.27-22-20.93-31.39-10.45-11.27-22.65-19.93-37.28-24.95-7.43-2.54-15.28-3.14-22.9-4.78-11.52-2.48-23-5.47-34.48-7.82-16.77-3.42-32.08-8.66-44.93-20.69C104.1,225.16,98.62,213.06,99,198.06c.34-12.21,5.88-21.26,14.75-29.7,18.55-17.65,44.77-13.94,59.86,3a86.52,86.52,0,0,1,9.87,14.22c6.37,10.9,12.73,21.94,12.08,35.31-.06,1.24-1.42,3.45,1,3.56,2,.09,2.41-2,2.58-3.7a56.51,56.51,0,0,0-.64-16.87c-3.36-16.6-10.69-31.41-20.36-45.13-8.73-12.39-20.29-20.15-35.74-21.75-14.23-1.48-26.12,3.75-36.85,12.28-9,7.13-16.51,15.82-19.64,26.91-4.58,16.25-5.38,32.65,1.48,48.85A75.13,75.13,0,0,0,97.65,241.5c10.08,13.05,21.78,24,38.54,28.46,18.64,4.92,37.76,7.64,56.36,12.66s35.6,13.29,48.83,28.1c8.68,9.71,13.67,21.46,17.08,33.42,3.73,13.08,1.87,26.79-2.73,39.74-2.42,6.83-3.34,14.55-8.64,19.94C234.43,416.71,220.2,426.69,201.06,425.79Zm468.6-156.63c-.24-13-.57-22.62-4.61-31.62-4.1-9.15-8.78-18.22-18-23.09a46.08,46.08,0,0,0-30.85-4.76c-12.25,2.42-22.83,8.59-29.88,18.91-7.43,10.87-7.65,23.55-5.08,36,3,14.61,21.12,23.94,34.79,15.68a28,28,0,0,0,13.42-17.58c2.38-8.83.7-16.73-5.59-22.94-6.53-6.47-16.7-7.06-20.1,5.29-.3,1.1-.93,2.41.46,3.06s2.18-.58,2.87-1.47a21.83,21.83,0,0,0,1.29-2.66c1.4-2.5,2.77-2.76,5.59-1.23,6,3.26,5.42,11.08,2.83,17.9-1.63,4.28-4.69,6.75-9.37,7-4.88.3-8.81-1.35-11.44-5.61-3.77-6.11-3.45-19.9,1.18-25.3,8-9.36,18.45-13.43,30.68-11.5,11,1.75,18,9.89,21.06,19.27,5.22,15.85,6.45,32.51-2.48,47.83-6.7,11.49-14.75,22.13-24.93,30.88-8.57,7.35-18.39,12.89-29.59,14.43-24,3.3-44.68-5.74-62.31-20.87-15-12.91-24.2-30.59-32.76-48.3C488,250.08,480.2,231.1,467.23,214.7,458.81,204,448,197,436.85,190.26c-13.84-8.32-29.42-10.82-45.17-9.47-12.16,1-23.44,5.37-31.92,15.36-9.92,11.68-10.89,25.59-11.17,39.82,0,1.2.11,2.51,1.55,2.75,1.63.28,1.69-1.24,2.08-2.28,1.78-4.65,3-9.59,5.43-13.89,5.3-9.49,13.29-15.73,23.85-19.07s21-6,31.78-3.91c12.65,2.44,24.41,7.11,34.43,15.88,10.25,9,19.57,18.9,25.77,30.78a313.27,313.27,0,0,1,17.65,41.64,130.3,130.3,0,0,0,7.73,18.34c8,15,20.25,26.31,34.5,35.13,6.95,4.29,14,9.1,22.45,10.43,23.89,3.74,46.83.66,68-11.15,12.2-6.81,23.32-15.72,31.59-27.08C665.57,299.52,671,283.56,669.66,269.16ZM208.83,605.33c-.42,9.41,2.69,23.44,5.86,28,12.06,17.55,29.32,22.73,49.5,20.68,20.86-2.12,40.15-21.56,37-43.86-1.13-7.89-1.91-16-5.29-23.13-4-8.47-10.08-15.92-15-24a368.73,368.73,0,0,1-18.95-36c-4.95-10.47-5.23-21.89-5.3-33.2-.12-18.48,1.07-36.79,8.57-54.09a12.71,12.71,0,0,0,1.07-4.84c0-2.28-1.23-3.14-3.16-1.51-2.66,2.25-5.08,4.77-7.74,7-9.55,8-18.69,16.37-31.36,19.58a116,116,0,0,1-24,3.41c-13.55.58-26.17-2-37.24-9.65a124.86,124.86,0,0,1-35.39-37.2c-5.07-8.21-8.7-16.84-7.93-26.77.11-1.38,1.52-3.23-.55-3.89-2.28-.73-3,1.44-3.78,3.08-.42.89-.6,1.9-.94,2.83-4.39,12.18-4.49,24.9-3.19,37.39,1.69,16.3,9.19,30.7,22.08,40.53,21,16,44.68,19,69.8,9.75,13.63-5,26.29-11.95,39.3-18.2,1-.45,2-1.74,3.12-.68s.25,2.15-.22,3.22c-6.68,15.11-10.06,30.62-9,47.42,1.36,22.65,8.73,43.11,19.86,62.39,7.4,12.81,13,25.67,10,41-1.74,9-6.78,14.54-15.24,17.28-8.87,2.87-17,.06-23-5.87-8.32-8.26-16.38-17.43-13.64-30.94a1.74,1.74,0,0,0-1.4-2.27c-1.18-.18-1.67.67-2,1.74A39.05,39.05,0,0,0,208.83,605.33ZM425.46,396.59c10.55,0,19.43-1.23,27.76-6.49a63.45,63.45,0,0,0,23.56-25.82c5.71-11.52,8.79-23.78,10.11-36.72a76.46,76.46,0,0,0-2-27c-4.78-18.91-13.28-36-24.49-51.9-6.17-8.74-13.1-16.85-21.92-22.9-10.3-7.06-22.12-9.3-34.52-9.35C375.8,216.27,355.2,239,350.85,263a73.92,73.92,0,0,0,2.9,36.33c4.7,14.38,14,25,28.83,30,1.63.55,3.73,1.84,4.86-.4s.21-4-1.77-5.64c-2.17-1.75-4.47-3.38-6.19-5.72-10.5-14.29-11.79-29.8-5.1-45.77,2.14-5.12,3.7-11,8.94-14.63,15.8-11,35.77-8.36,49.62,6.5,11.42,12.26,17.42,27,19.77,43.26,1.93,13.36,2.47,26.77-3.21,39.7-7.69,17.47-20,29.71-38.79,34.17-7,1.67-14.37,2.94-21.72,1.1-1.62-.4-3.11-.1-3.65,1.67s.8,2.52,2.24,3.25C399.86,393,412.39,398.22,425.46,396.59Zm-81,37.76c-10.26-.13-19.35,2.38-27.44,8.85a44.62,44.62,0,0,0-15.13,21.7c-5.06,16.91-2.63,33.68,5.43,49.53,8.58,16.87,19.48,32.34,29.22,48.51A49.63,49.63,0,0,1,343,598.32c-1.75,10-15.5,14.68-22.89,11.72-1.18-.47-2.51-1.86-3.46-.24-1.11,1.89.94,2.51,2.09,3.26,8.38,5.54,23.2.65,27.41-9.38,3.82-9.13,5.79-18.48,4.07-28.68-1-6.16-2.54-12.25-3.38-18.46-1.33-9.78-5.56-18.47-10.16-27.19-6.33-12-12.5-24.27-10.56-38.7,2.92-21.83,28.67-33.2,47.29-21.32,9.69,6.18,16.18,14.41,20.87,24.59,3.3,7.15,5.76,14.49,6.41,22.35a33.47,33.47,0,0,1-4.9,21c-.81,1.31-3.77,1.07-2.82,3.37.87,2.12,3.24,2.15,5.21,2.2,2.78.09,5.51.25,8.27-.93,15.78-6.78,19.91-24.44,17-40.32-2.43-13.29-7.68-25.69-17.05-36.45C389.77,446,370.48,433.57,344.42,434.35Zm-38-380a62.74,62.74,0,0,0-12.28,1.15c-.93.16-2.29.08-2.31,1.36,0,1.65,1.51,1.45,2.6,1.57,3.13.36,6.51,0,9.36,1.08,9.85,3.69,20,6.4,29.73,10.63,12.23,5.32,23.1,11.88,31.53,22.43,7.83,9.8,9.12,21.45,10.3,33.16.3,3,1.66,4.5,4.43,3.19,1.47-.71,2.76-1.8,4.17-2.66,12.14-7.43,26.22-6.93,39.52-9.12,18.95-3.12,35.36-9.36,46.43-26.23,7.37-11.25,9-28.64-1.63-37.89-8.6-7.49-17.82-11.63-29.63-8.56-6.05,1.58-10.56,5.26-15.55,8.4-1.88,1.19-4.3,2.58-3.08,4.93,1.44,2.78,3.38,0,5-.59,4.21-1.66,11.73-.26,14.93,3.22s3.65,7.88,1.35,12c-2.93,5.26-6.68,9.67-12.47,12.37-12.37,5.79-26.7,7.42-37.1,17.42-2,2-3.15.28-3.37-1.48-.57-4.55-2.66-8.57-4.27-12.72-6-15.36-16.61-26.16-33-29.63A192.68,192.68,0,0,0,306.45,54.34ZM118.63,584.54c0,.49-.07,1.49,0,2.48,1.1,15.07,7,28.37,16.29,40,8.93,11.15,23.16,13.81,36.06,7.51,15.21-7.43,22.59-20.49,25-36.68,1.51-10.12.61-19.68-8.75-26.22-5.38-3.75-11.14-7.19-17.94-4.86a43.52,43.52,0,0,0-13.23,7.73c-1.19,1-3.58,1.48-2.5,3.59s3,.6,4.44.15c10.69-3.28,19.06,2.36,19.92,13.55a37.31,37.31,0,0,1,0,6c-.85,10.37-7.21,17.08-14.77,19.44-10.2,3.2-17.61-.12-23.41-10-8.27-14.08-11-28.26-2.61-43.84,5.43-10,11.87-18.61,20.81-25.64,7.67-6,16.42-9.95,24.91-14.49,12.66-6.76,26.26-12.09,36-23.52,4.89-5.72,8.69-11.66,9.64-19.22.19-1.57.29-3.18-1.44-3.78-1.54-.54-2.28.87-3.12,1.93a37.3,37.3,0,0,1-19.38,13.22c-4.61,1.32-9.18,2.72-13.87,3.84-18.78,4.48-34.23,14.77-47.77,28.18a77.71,77.71,0,0,0-18.69,28.88C120.58,562.84,120.23,573.53,118.63,584.54ZM262.81,248.81c.91-1.28.05-2.08-.53-2.79-4.93-6.07-8.55-12.8-12.13-19.8-6.45-12.62-7.39-24.67-1.74-37.7,7.83-18,30.21-23.6,44.66-10.28,8.92,8.22,14.54,18.77,18.57,30.26,6.45,18.37,6.17,37.64,7.48,56.6,1.27,18.37,5,35.85,13.4,52.12,6.69,12.93,17.48,22.3,29.25,30.6,5.41,3.82,11.39,4.28,17.62,3.67a12.12,12.12,0,0,0,7.68-3.17c1-1,2.22-2.52,1.08-4-1.34-1.69-3.16-.95-4.34.34-3,3.27-6.86,3.32-10.62,2.84-8.83-1.15-15.06-6.61-20.11-13.41-10.11-13.6-14.29-28.91-15.34-45.92-1.32-21.35-.61-42.82-4-64.09-2.73-17.22-6.36-33.82-16.56-48.51C306.64,160.42,293,152.39,274.1,153c-24.33.84-37.89,18.39-38.72,40.49-.73,19.64,8.42,36.19,21.56,50.43C258.61,245.76,260,248.27,262.81,248.81ZM512,133.71c-.14,5.8.2,11.7-1.61,17.29-1.49,4.59-3.5,9.45-8.48,11-8.65,2.72-17.6,2.45-25.72-1.64-11.54-5.81-22.74-12.31-34-18.66-18.74-10.55-37.63-11.19-56.33-.35C373.52,148.5,367,159.61,366,173.91c-.1,1.45-1,3.41.85,3.94,2.38.68,2.44-1.79,2.81-3.22A20.24,20.24,0,0,1,378,162.7c23.87-16.8,49.47-15,74.15-1.27C460.22,166,465.26,174,472,180.15c7.92,7.22,16.2,12.86,27.94,11.56,15-1.67,26.8-10.25,31-22.27,7.65-21.64-1.33-38.28-15.4-53.24a34.41,34.41,0,0,0-11.26-8c-1.52-.65-3.05-1-3.79.81s.81,2.2,2.07,2.75c4.85,2.13,7.17,6,8.14,11.11A53.15,53.15,0,0,1,512,133.71ZM498.28,397c-7.39,2.79-15,16.08-15.18,25.49-.22,10.48,4.47,19.2,9.24,28,8.35,15.41,21.47,25.55,37.48,31.05,18.94,6.51,35.44.92,49-13.86,11.27-12.24,17.32-26.94,20.94-42.79,2.5-11,4.62-21.92,11.62-31.36,7.94-10.72,16.3-20.22,31.16-19.73,1.7.06,2.62-.67,2.39-2.32s-1.57-1.74-3.05-1.62c-5.27.41-10.56.73-15.83,1.17-19.71,1.66-36.47,19.8-40.73,37.45-2,8.24-2.43,16.72-4.11,25-1.37,6.81-2.76,13.62-8.46,18.68-20.71,18.34-45.48,8.77-62.21-4.32-6.5-5.08-11-12.25-14.81-19.82-4.47-8.88-4.13-17.14.46-25.6C497.08,400.86,498.45,399.5,498.28,397ZM151.67,357.54a41.11,41.11,0,0,0,9.05,27.86,94.64,94.64,0,0,0,14.5,14.29c10.76,8.88,22.89,11.56,36.31,8.43,14.55-3.41,22.87-13.68,28.7-26.62,8.11-18,4.31-37.68-10-51.22-1.13-1.07-2.4-3.07-4.11-1.73-1.54,1.2.18,2.79.84,3.94,4.1,7.1,3.54,14.77,2.68,22.38-1,9-4.54,17.23-11.45,23.15-9.82,8.4-28.74,6.82-38.28-2-5.66-5.27-9.22-11.48-12.11-18.54-4.24-10.35,0-33.67,8.14-41.18a6.2,6.2,0,0,1,1.94-1.54c3.09-1,3.61-4.72,6.6-5.79a1.39,1.39,0,0,0,.45-2.15c-.55-.84-1.42-.71-2.21-.29-2.63,1.42-5.3,2.78-7.86,4.32-7.16,4.31-14.24,9.07-17.83,16.79C152.68,336.84,150.16,346.7,151.67,357.54Zm87-227c.19-8.06-4.44-15.46-9.36-17.49a10.16,10.16,0,0,0-8.24.2c-1,.42-1.75,1.17-1.25,2.33.34.8,1.12,1,2.06,1,5.57.27,6.79,1.61,6.25,7a16.86,16.86,0,0,1-2.85,7.91c-3.85,5.6-9.16,7-15.16,4-5.55-2.76-7.1-7.1-4.6-13.84a76.53,76.53,0,0,1,10.55-19.1c7-9.4,16.24-16.91,22.23-27.29a62,62,0,0,0,8.59-27.72c.32-5.57,0-11.67-3.64-16.7-1.17-1.63-1.53-5.17-4-4.12s-.19,3.85.27,5.72c1.29,5.23,2.64,10.51.1,15.57-7.61,15.15-18.79,27.05-33,36.35a47.54,47.54,0,0,0-13.93,13.18c-11.63,17.31-12,35.58-.43,52.73,6.57,9.77,26,11.71,34.9,3.56C234.68,147,239.44,138.62,238.7,130.58Zm195,516.06a7.38,7.38,0,0,0,0,11c4.71,4.05,10.19,5.71,16.21,3.32,6.66-2.65,11.54-6.91,12.43-14.66,1.9-16.6-12.7-33.15-25.92-36.51-4-1-7.88-.88-11.81-1.21-5.27-.45-10.68-1.47-15.83-.76-14.25,2-27.55,6.7-39.54,15.1-8.08,5.66-17.1,9.7-27.2,10.2-11.52.58-22.16-1.94-30.64-10.36-1.55-1.54-4.48-3.09-2.31-6.14.74-1,2.41-2,.83-3.22s-3.36.18-4.16,1.49c-2.37,3.84-1.8,7.79-.2,11.88,3.49,8.94,11.38,13.43,19.27,16a63,63,0,0,0,40.62-.54c12.83-4.49,24.18-12.45,37.62-15.56,8.57-2,16.81-4.49,25.81-1.65s15,8.21,18.06,17c1.74,5-1.41,10.75-6.23,11.77S435,653.81,433.74,646.64Zm93.51-401.93c-.86,5.18-.86,5.18,1.91,6.77,5.68,3.25,15-.93,16.74-7.28a31.57,31.57,0,0,0,.45-15.81c-4.76-19.89-20.57-30.81-40.47-21.81-8.2,3.71-13.76,10.16-13.51,20.61.28,12,3.84,22.86,8.53,33.49,3.12,7.09,7.36,13.67,10.82,20.63,5.33,10.72,13.7,19,23.2,25.46,11.93,8.11,25.3,12.74,40.52,9.89a132.23,132.23,0,0,0,27.47-8.53c1-.43,2.64-.9,2.06-2.31-.69-1.66-1.85-.34-2.84.11-9.09,4.13-18.93,4.56-28.62,5.55A22,22,0,0,1,561,308.73c-21.4-11.12-35-28.86-43.36-51-2.84-7.51-3.81-15.49-4.7-23.4-1.16-10.31,8-18,16.54-14.11,8,3.65,11.77,10.55,12.9,18.82.58,4.28-1.71,7.6-6,9.34C532.71,249.89,529.75,249.33,527.25,244.71ZM250.15,595.46c-.84-7.42-3.94-15.78-8.76-23.46-5.3-8.45-10.61-16.85-14.29-26.17-3.06-7.72-6.57-15.31-6.45-23.86,0-2,.54-4.39-1.87-5.07s-3.79,1.37-4.84,3.35a28,28,0,0,1-14.79,13.46c-5.39,2.14-10.57,4.76-16.17,6.43s-11.26,4.14-15.65,8.38c-1.92,1.85-5.84,3.47-4.43,6.39,1.28,2.67,5.06,1.2,7.8.92,8.27-.83,16.39,0,23.67,4.12a66.19,66.19,0,0,1,23.88,22.85c3.59,5.77,6.49,11.89,9.58,17.91,3.4,6.6,9.09,9.92,14.73,8.49C247.32,608,250.24,603.37,250.15,595.46Zm136.52-69.59c.55-12.17-1-19.77-6.7-30.63-5-9.37-12.79-15.19-23.33-16.74a16.85,16.85,0,0,0-16.86,7.4c-5.79,8.36-5.2,20.79,1,28.9,3.89,5.05,8.58,9.35,15.85,8.46,1.57-.19,3.64.56,4-1.83.27-2-1.14-2.86-2.94-3.38a10.48,10.48,0,0,1-7.14-6.42c-1.38-3.54-2-7.2,1.69-9.92,3.51-2.59,6.91-1.82,10,.77a23.32,23.32,0,0,1,3.73,4c4.9,6.66,5.51,14.53,5.55,22.33.14,22-4.9,43.24-11.74,63.93-3.26,9.83-5.59,21.49-18.77,24.11a1.64,1.64,0,0,0-1.39,2.21c.3,1,1.24,1,2.06.93,4.17-.2,8.1-.69,11.7-3.42,9.22-7,13.89-16.75,17.62-27.14,3.87-10.77,7.6-21.57,10-32.83C383.17,546.37,386.74,536.47,386.67,525.87Zm22.22-261.34c-15,.44-23.21,9.64-25,24.38-1,8.29,1.16,15.52,8.1,21.32,6.63,5.54,10.31,12.88,9.07,22.06-.73,5.41-1.68,10.92-1.4,16.33.46,8.92,3.63,15.67,9.68,16.68,9.74,1.62,21.23-3.82,25.33-12.84a24,24,0,0,0,2.09-8.1c.18-2.42-1.61-3.64-4-2.52a12.7,12.7,0,0,0-3,2.59c-4.68,4.46-8.81,3.86-12.18-1.6-1.88-3.05-2.05-6.25-1.49-9.61.44-2.62,1-5.22,1.37-7.86,1.38-10.81-3.47-19.28-10.26-27-2.56-2.91-4.68-6.15-4.78-10.12a11.74,11.74,0,0,1,7.83-11.07,12.56,12.56,0,0,1,13.09,3.7c1.14,1.43,1.82,3.34,4.23,1.73s.58-3,0-4.61C424.11,268.55,416.65,265.25,408.89,264.53Zm211.65,86.14a3.19,3.19,0,0,0-3.25-.17c-9.31,2.86-18.58,5.87-28,8.48-15.12,4.2-30,1.21-44.79-2.12-1.54-.35-3.67-1.56-4.47.22s1.44,2.66,2.87,3.33c6.93,3.2,12.36,7.63,16,14.76,6.87,13.45,11.47,27.13,5.32,41.84-4.42,10.61-10.61,20.27-23.59,21.88-3.9.49-7.82,1.62-11.84.93-1-.17-2.12-.26-2.47,1s.61,1.83,1.49,2.29c2.51,1.3,5.12,2.4,7.57,3.8,13.46,7.71,28.58,1.63,34.4-12.79,4.75-11.75,6.06-24.33,10.41-36.16,6.74-18.31,15.85-34.33,34.68-42.69A14.57,14.57,0,0,0,620.54,350.67ZM362.73,150.74a72.94,72.94,0,0,0-5.52-28.52,79.61,79.61,0,0,0-30.47-37.63c-17.54-11.67-38.52-12.81-58.21-17.85-1.16-.3-2.91-.69-3.27,1.19-.31,1.62,1,2.34,2.38,2.66,11,2.64,20.62,8.14,29.94,14.27,9.15,6,19,11.23,26.79,18.91,14.17,14,22.61,31.45,26.14,51,1.47,8.13,2.77,16.69-1.41,24.44-2.08,3.86-2.85,7.32-1.3,11.32.48,1.25,0,3.54,2.1,3.29,1.8-.22,1.71-2.35,1.76-3.72.18-4.43,1.2-8.95,3.62-12.29C361.46,169.34,361.87,159.63,362.73,150.74ZM325,319.19c1.11-1.12,1-1.84.64-2.37-7.43-10.42-13.84-21.46-20.42-32.42-7.94-13.23-16.52-26.13-22.16-40.57-3.6-9.23-7.71-18.49-6.65-28.83.25-2.44.23-5.59,3.51-5.74a6.21,6.21,0,0,1,6.44,4.59c1.08,3.67,2.07,7.5,1.28,11.28-.62,3,.06,6.69-4.14,8.22-1.48.53-.77,2.22.71,3,2.66,1.44,8.35-.12,10.27-2.52,9.3-11.59,5-28.57-4.66-37.42-7-6.4-12.75-7.12-19.28-2.77-7,4.66-8.1,12.5-8.15,19.42A59.19,59.19,0,0,0,268.89,240c10.61,20.86,21.36,41.68,37.57,59C312.69,305.67,318.8,312.45,325,319.19Zm-27.84-205c-11,.75-20.3,1-28.79,5.52-5.55,3-11,6.19-16.91,8.38-1.71.63-4.5,1.35-3.48,3.92s3.26,1.07,5.06.28c15.29-6.66,30.67-6.28,46-.41a49.39,49.39,0,0,1,27.86,25.73c5,10.82,10.21,22,7.29,34.84a16.09,16.09,0,0,0,1.49,10.61c.5,1,1.18,2.33,2.53,2,1.65-.35.86-1.86.9-2.93.24-6.1.33-12.16,1.59-18.25,2.23-10.77,4.79-21.18,2.41-32.83C339.41,132.88,314,112.07,297.14,114.21ZM131.45,276.41c-4.69-.39-9.39.13-13.26,3.7a42.11,42.11,0,0,0-10.76,14.75c-.57,1.39-1.38,2.94.2,4s2.92,0,3.88-1.17c3.62-4.44,8.73-5.21,13.89-5.6,8.56-.64,16.35,9.71,14,17.84-2.05,7.19-8.53,8.14-13.84,9.9-5.14,1.71-10.87.75-15.94-1.93-1.21-.64-2-2.9-3.64-1.67s-1.2,3.23-.75,5.08c1.17,4.79,4.85,7.86,7.81,11.37,5.85,6.94,18.07,8.88,25.57,4.59a38.2,38.2,0,0,0,18.28-22.52C162.34,297.76,152.8,274.09,131.45,276.41ZM592.58,175.25c.41,3.43.35,6.15,1.11,8.62,1,3.17.3,5.6-1.33,8.4-4.68,8.09-11.74,11-20.73,11.22-11.62.29-20-9.47-20.88-19.41-.91-10.92,6.36-19.4,17.64-21,1-.14,2.11.26,2.39-1.09.23-1.12-.58-1.85-1.37-2.46-2.94-2.26-15.59-2.88-18.87-.92-6.12,3.64-10.93,8.36-13.89,15.07-4.51,10.22-4.3,20.52,1.68,29.46,13.49,20.17,44.16,21.73,58.48.17C602.16,195.29,602.81,182.19,592.58,175.25ZM568,602c10.15.2,18-1.55,27.3-8a36.37,36.37,0,0,0,14.43-19.58c4.91-16.15-9.12-30.12-20.78-34.59-3.83-1.47-8.16-2-11.3,2-.6.79-1.48,1.68-.89,2.65s1.8.65,2.68.17c2.44-1.32,4.66-.94,6.1,1.29,2.18,3.36,4.21,7.14,3.58,11.18-2.77,17.53-7.69,25.39-24.5,31.77a17.44,17.44,0,0,1-17.46-2.56c-1-.8-1-3.35-3-2.35s-.5,2.91-.28,4.41c.27,1.92,1.5,3.31,2.78,4.63C552.63,599.29,559.38,603.76,568,602ZM420.71,159.14A103.67,103.67,0,0,0,388.92,166a32.41,32.41,0,0,0-11.57,7.49c-.83.84-1.89,1.7-1.12,3s1.95.42,3.08.28c5.67-.73,11.08-3.08,16.9-2.77,13.11.68,26,2.26,38.65,6.25,19.08,6,31.62,19.21,42.42,34.88,1.12,1.64,1.08,5,4,4.24,3-.84,2.21-4,2.2-6.44a14,14,0,0,0-.39-2.46c-2.32-12.11-9.25-21.54-17.9-29.79C452.19,168.26,437.24,160,420.71,159.14Zm238.55,247.1c-12.76-7.95-23.06-8.82-33.09-2.76-7,4.21-10.93,11.1-14.62,18-8.6,16-11,32.56-3.17,49.61,7.59,16.6,30.17,24.32,44.88,9.67.88-.88,2.65-1.66,2-3.1-1-2.12-2.59-.37-3.84,0-4.44,1.2-8.7,3.37-13.53,1.34-11.47-4.83-20.71-20.09-20.08-32.57.52-10.59,4.88-19.84,10.89-27.88,5.31-7.12,12.56-12.72,22.67-12.16C653.8,406.46,656.29,408.74,659.26,406.24ZM314.57,106a8.23,8.23,0,0,0-1.42-1.88c-3.06-2.28-6.08-4.66-9.32-6.65-11.93-7.35-25-12.25-37.94-17.43-3.6-1.44-6.69-1.13-9.23,2.94-4.55,7.29-9.89,14-18,17.86-2.79,1.31-2,3-.12,4.55a25.36,25.36,0,0,1,7.73,9.63c1.65,3.74,4,3.75,6.71,2a69.44,69.44,0,0,1,27.1-10.34c10.32-1.8,20.54-3.82,30.44,1.62C312.78,109.51,313.8,108.17,314.57,106Zm146.6,511.86c-.22,5.59,2.81,12.41,7.19,18.55,3.49,4.88,12.35,8.12,16.2,6.55,1.48-.6,3.37-1,3.32-3.19s-1.73-2.55-3.37-3.06a13.21,13.21,0,0,1-9.65-11c-.91-6-2.88-12.43,4.14-16.93,4.32-2.77,11.56-4,14.95-1,5.4,4.83,9.46,10.37,7,18.31-.41,1.33-.55,2.79,1.06,3.39a2.62,2.62,0,0,0,3.36-1.45c2.4-5.42,5-10.65,3.87-17.11-1.52-9-7.58-14-14.32-18.72-4.72-3.32-9.77-3.87-15.16-2.31C467.73,593.39,462.22,601.5,461.17,617.85Zm-291.87-428c-2.89-9.36-9.16-15.65-18.51-17.95-16.16-4-30.69,5-36.75,18.52-6.66,14.82.14,27.85,4.41,41.29a2.46,2.46,0,0,0,3.36,1.38c1.88-.83,1.09-2.37.77-3.85-2.89-13.45-1.47-26,9.3-35.69,7-6.25,14.69-11.07,25.05-9.75C162,184.41,165.07,187.76,169.3,189.81ZM590.87,293.88c-3.35-.37-5.72-.37-8-.93-11.85-3-19.53-11.31-26.15-20.91-4.77-6.9-6.4-14.39-4.23-22.6.28-1,1.13-2.48-.56-2.91s-1.34,1.49-2,2.31c-3.71,4.76-6.61,10.32-12.69,12.76-5.16,2.07-5.4,3.43-2.44,8.29a99.53,99.53,0,0,0,16.28,20.59c9.54,9,25.29,15.55,39.34,9.82,2.35-1,6.53-1.15,6.06-4.66C596,291.76,592.14,294.34,590.87,293.88Zm-146.09,28c-.47-5.78-.71-11.59-1.48-17.33-.72-5.43-2-10.78-5.05-15.51-.73-1.12-1.17-2.55-2.88-2.16a2.25,2.25,0,0,0-1.78,2.62c.23,3.34-1.82,3.82-4.47,3.68-7.86-.39-9.53,2-6.2,9.39,3.6,8,5.14,16.05,2.81,24.68-.68,2.53-1.36,5.52,1.25,7.34,2.42,1.69,4.73,0,6.92-1.23,2.6-1.42,4.51-1.58,4.38,2.31,0,1.33.18,3,1.81,3.11s2.14-1.46,2.48-2.71C443.86,331.4,445.38,326.79,444.78,321.84ZM316.56,291.43a4.34,4.34,0,0,0,.34-1.7c-1.36-6.61-1.79-13.4-4.2-19.81a51.78,51.78,0,0,1-3.64-16c-.45-11.43-.44-22.88-1.82-34.27-.17-1.45.3-3.26-1.88-3.41s-2,1.34-2.18,3c-.93,8.2-2.53,16.07-10.61,20.75-1.94,1.13-3.65,3.1-2.34,5.87,7.16,15.1,14.25,30.23,23.77,44C314.58,290.8,315,291.7,316.56,291.43ZM385.73,572c-.54,8.67,5.75,18.36,12.24,18.86,7.31.56,16.44-7.57,17.07-15.19.58-7.09-8-15.73-16.09-16.24C393.26,559.05,386.11,565.86,385.73,572ZM197.63,332c-9.72-.48-13.73,4.91-13.82,12-.12,9.49,6,15,15,14.76,7-.2,13.76-6.17,13.11-12.26C211.17,339.64,206.9,330.6,197.63,332ZM640.89,433.56c-7.47,0-12.86,5.88-12.84,14,0,5.88,5.66,15.43,11.72,15,7.85-.54,14.15-7.36,14.15-16.19A13.16,13.16,0,0,0,640.89,433.56ZM207.37,215.77a12.93,12.93,0,0,0-.24,2c-.06,1.13-.31,2.64,1.16,2.93s1.64-1.33,2-2.34a7.43,7.43,0,0,0,.42-2.43,90.58,90.58,0,0,1,3.73-25.53c2.39-7.6,2.4-16.22,8.91-22.21a2,2,0,0,0,0-1.78c-.48-.82-1.4-.7-2.24-.49a55.66,55.66,0,0,1-6.75,1.38c-5.65.7-10.36-1.86-15.4-3.38-1-.31-2.32-1.2-3.26-.08s-.06,2.54.54,3.66c1.64,3.06,3.66,5.85,4.86,9.2C205.48,188.85,206.9,201.49,207.37,215.77Zm267.26-75.85c-.22,5.64,6.8,12.42,13.14,12.69,6,.26,11.8-6.05,12.29-13.38a12.82,12.82,0,0,0-12.19-13.68C480.52,125.3,475,131.33,474.63,139.92Zm40.26,203.39c0-6.54-6.24-13.77-12-13.79-6.88,0-13.09,7.05-13,14.86,0,6.14,6.19,13,11.55,12.95C508.32,357.21,514.85,350.43,514.89,343.31Zm-79.6,60.63c-7-.52-11.64,4.72-12.61,14.2-.6,5.86,5.4,12.4,11.81,12.86,6,.44,12.05-5.81,12.7-13.09C447.76,411.53,441.71,404.43,435.29,403.94ZM552.68,547.75c-6.43-.36-11.34,2.14-12.17,6.19-1.51,7.38,6.51,17.33,14.07,17.3,4.94,0,9-1.6,11-6.72C569.15,555.67,563.57,548.36,552.68,547.75Zm22.13-378.4a14,14,0,0,0-13.72,14c0,5.22,6.36,11.16,12,11.21,5,0,12.41-8.57,12.4-14.49A10.37,10.37,0,0,0,574.81,169.35ZM151.55,204.93c-6.14-.06-11.12,4.15-11.19,9.45-.09,7.12,5.27,14.52,10.68,14.72,6,.23,11.69-5.38,11.75-11.51C162.86,211,157.52,205,151.55,204.93ZM681.36,448.54c0-5.75-4.69-11.84-9.22-12-6-.26-11.82,5.16-11.86,11.05,0,6.71,4.72,12.3,10.42,12.2C677.14,459.66,681.39,455.18,681.36,448.54Zm-324.09,131,1.1.08a6.75,6.75,0,0,0,.89-1.67c3-14.73,2.16-29.79,3.66-44.65.15-1.55-.52-3.81-2-3.52-4.35.9-7.08-2.16-10.5-3.48a2.73,2.73,0,0,0-3.5,1.08,2.91,2.91,0,0,0,.29,3.67,40,40,0,0,1,3.36,4.89c3.84,7.23,4.44,15.18,5,23.15C356.08,565.92,356.71,572.73,357.27,579.55ZM217.32,246.34c0-6.34-6.06-13-11.66-12.84-4.79.16-8.71,5.63-8.69,12.15,0,6,5.38,11.61,10.92,11.47S217.31,252.41,217.32,246.34Zm304.93,147c-5.26-.09-9.58,3.82-9.53,8.63.06,6.54,3.44,10.88,8.63,11.07,5.95.22,10-4.15,10.18-11C531.66,397.05,527.78,393.39,522.25,393.3ZM113,307c0,5.84,3.17,9.47,8.41,9.49,5.8,0,10.3-4.21,10.29-9.69,0-5.33-2.79-8.37-7.65-8.4C117.58,298.31,113,301.87,113,307ZM430.52,597c4.22.18,7.86-2.76,8-6.48.27-6.42-4.63-12.27-10.44-12.48-3.68-.13-7.69,4.92-7.87,9.9C420,593.19,424.11,596.76,430.52,597ZM606.61,151.91c.11-4.45-3.8-9.95-7.23-10.15-3.22-.19-10.87,7.36-11.14,11s4.72,8.59,8.74,8.66C601.85,161.5,606.48,156.93,606.61,151.91Zm-188-87.07c-6-.19-9.19,2.22-9.44,7-.28,5.43,3.05,9.55,7.77,9.61,6.42.07,10.59-3.38,10.68-8.84S425.32,65.06,418.58,64.84ZM158,606.23c4.67.19,8.46-3.83,8.83-9.38a7.51,7.51,0,0,0-7-8.05c-6-.31-9.56,2.78-9.85,8.58S152.19,606,158,606.23Zm328.8,6.3c-5.6,0-8.25,2.83-8.15,8.71.08,5,3.88,9.48,8.28,9.65,4.2.17,7.59-4.68,7.62-10.88Q494.61,612.51,486.83,612.53ZM707.42,449.85c.08-3.91-4.34-8.59-8.14-8.61-4,0-9.32,4.12-9.47,7.44s5.11,9,8.54,9.18C703,458.08,707.33,454.28,707.42,449.85ZM196.85,313.62c-.24,4.45,3.15,8.86,6.87,8.92,3.91.07,7.56-3.78,7.85-8.25.3-4.75-2.61-8.92-6.45-9.23C200.43,304.67,197.15,308.06,196.85,313.62ZM536.25,542c.06-3.83-5.2-8.78-9.29-8.75-4.32,0-6.82,2.5-6.82,6.72,0,3.86,5.09,9,9.13,9.16S536.17,546.5,536.25,542ZM464.66,587.3c.1-3.87-2.84-7.41-6.3-7.61-4-.22-8.46,3.19-8.55,6.48-.13,4.37,2.88,7.93,6.88,8.13A7.3,7.3,0,0,0,464.66,587.3Zm2.62-455.84c.24-3.31-.69-6.05-4.36-6.58-3.91-.56-9.52,5.05-9.71,9.59s3.61,5.12,6.73,5.52C464.26,140.53,467,137.06,467.28,131.46ZM505.85,645.2c.1-5.45-3.44-9.3-8-9.26-3.89,0-4.51,2.89-4.66,5.78-.2,4,3.71,8.19,7.67,8.36C504.51,650.24,505.58,647.8,505.85,645.2Zm-413.56-340c0-3.83-2.22-5.88-6.56-5.45-3.41.33-5.88,2.35-6,6-.12,4.37,2.66,7.18,6.53,7.15C89.69,312.9,92.3,309.57,92.29,305.23Zm78.52-73.78c-4.86.08-6.26,2.49-6.09,5.91.16,3.14.23,6.83,4.9,6.48,3.44-.26,6.43-2,6.21-5.79C175.63,234.69,174.25,231.46,170.81,231.45ZM623.14,128.6A5.78,5.78,0,0,0,628,123c.12-3.28-1.72-6-5.43-5.55-3.45.39-6.6,2.45-6.81,6.08C615.61,126.88,618.11,128.83,623.14,128.6ZM727,457.15c2.22-.92,4.84-2.35,4-5.19s-1.55-7.4-5.53-7.1c-2.74.21-6.18,2.56-5.84,6.36S723.38,456.35,727,457.15ZM397.12,79.21a4.56,4.56,0,0,0-5.19,4.91c.09,2.52,2,5.67,5.31,5.48s6-2,6-5.91C403.22,80.26,401,79.23,397.12,79.21ZM48.68,302.33c-2,.22-4.94,1.12-5.12,4.12s2.73,4.95,5.4,5.41a4.6,4.6,0,0,0,5.26-4.18C54.69,304.39,52.37,303,48.68,302.33ZM444.5,127.19c.12-2.11-.61-3.87-2.92-3.73-3,.19-5.61,1.6-5.73,5a3.69,3.69,0,0,0,3.82,3.84C442.8,132.34,444.35,130.28,444.5,127.19Zm34.2,448.14c1.55-.24,4.28.07,4-2.71-.25-2.31.3-6-3.5-6.17a4.32,4.32,0,0,0-4.78,4.09C474.22,573.19,475.48,575,478.7,575.33Zm35.94,86.84c0-3-.8-5.22-4-5.36-3.86-.16-3.21,3.05-3.61,5.3-.43,2.46.85,4,3.28,3.77C512.5,665.69,515.25,665.52,514.64,662.17ZM647.19,98.52c-.92-2.31-2.15-4.48-4.85-4.3s-3.84,2.55-4,4.93c-.17,2.19,1.22,4,3.51,3.82A5.75,5.75,0,0,0,647.19,98.52Zm100.19,355.9c1.65-.3,2.9-1.16,2.84-2.9a3.38,3.38,0,0,0-3.6-3.35c-2.1-.07-2.93,1.66-2.76,3.39S745.54,454.27,747.38,454.42ZM520.54,679.65c1.87.18,2.28-1,2.29-2.44,0-1.62.21-3.52-2.26-3.49-1.63,0-2.88.73-3,2.58C517.53,678.31,518.9,679.13,520.54,679.65ZM19.38,306c-.29-1.47-.93-2.91-2.71-2.91a2.32,2.32,0,0,0-2.18,2.34c-.09,1.77,1,2.74,2.76,2.77C18.62,308.18,19.41,307.49,19.38,306ZM662.85,78.59c-.3-1.21-1.31-1.58-2.55-1.27s-3.23.3-2.83,2.52A2.12,2.12,0,0,0,660,81.69,3.12,3.12,0,0,0,662.85,78.59ZM109.73,210.73l.21.26.12-.27Z" transform="translate(25.74 48.11)"/><path d="M349.56,424.27c-13.17,1.39-26.37,2.38-37.89,10.24-5.37,3.67-8.73,9.06-12.67,13.87-11.32,13.79-13.6,30.15-12.07,47.33.95,10.72,1.38,21.59,5.11,31.8,5.37,14.65,11.1,29.17,20.36,42a23.55,23.55,0,0,0,5,4.77c1.35,1,1.29,2.7.26,4s-2.08.71-3-.21c-8.17-8.43-16.54-16.83-22.76-26.79A126.44,126.44,0,0,1,273.58,499c-3-24.62-.26-48.9,5.1-73.05,2.79-12.58,8.45-24.14,11.69-36.49,3.37-12.89,5-26.1,2.76-39.4-1.48-8.79-3-17.47-6.52-26-5.2-12.61-15.16-21.12-23.45-31.11-16.1-19.36-34.17-37.56-40.08-63.28-2.83-12.36-4.32-24.91-.19-37.39a16.62,16.62,0,0,1,1.38-3.18c.51-.86,1.32-1.62,2.45-1.14s1.08,1.38.82,2.49c-3.24,13.43.34,25.71,5.6,38.06,9.19,21.57,25.86,37.56,40,55.44,6.78,8.56,15.18,15.66,22.37,23.83,5.25,6,10.88,11.55,16.17,17.44,4.49,5,9.69,9.11,14.72,13.39,16.83,14.33,33,29.38,48.87,44.74,13.21,12.81,25,27.07,37.57,40.55,11.42,12.25,23.73,23.65,34.54,36.47,12.68,15,22.28,31.75,27.61,50.79,2.19,7.81,5.62,15.28,5.69,23.64.12,14-5.57,25-16.35,33.54-4.28,3.4-9.25,4.11-14.57,4.05-16.29-.16-28.81-7.84-39.45-19.39-.77-.83-1.78-1.72-1.08-3s2-1.21,3.1-.92c7.81,2.11,14.33.18,19.89-5.73,6.84-7.28,9.66-15.71,8.11-25.59A92.17,92.17,0,0,0,429,485.65c-4.56-7.89-8.15-16.32-14.27-23.27-10.6-12-22.26-23.06-36.53-30.29C369.49,427.7,360,423.58,349.56,424.27Zm-35.94-35.48c-.08,6,1.66,8,7.3,8.14s8.91-3.44,9-10a9.61,9.61,0,0,0-9.2-9.46C315.82,377.38,313.72,380.7,313.62,388.79Z" transform="translate(25.74 48.11)"/><path d="M556.5,495a221.67,221.67,0,0,1,42.25.47c15.94,1.61,28.16,9.68,36.57,23.62,10.56,17.51,12.23,36.13,6.49,55.22-4.9,16.31-12.28,31.83-24.62,43.88C603,632,585.27,639,565.58,637.37c-12.54-1-24.31-6.49-34.16-15.06-8.49-7.38-15.79-15.66-20.78-25.84-3.9-8-5.79-16.45-7.33-25.16a168.62,168.62,0,0,1-2.77-33.61c.08-3.49.12-7,.19-10.47.13-5.85-1.85-10.7-6.67-14.26-1-.74-2.63-1.57-1.7-3.11.83-1.38,2.34-.69,3.62-.25,6.35,2.21,10.49,8.14,11,15.73a102.32,102.32,0,0,0,8.8,36c2,4.37,3.27,9.07,5.23,13.47,6.55,14.7,16.43,27.21,31.14,33.48,15.07,6.42,30.8,8,46-2.68,14.05-9.92,22.27-21.91,22.82-39.56.41-12.9-13.18-33.14-26.43-36.36a155,155,0,0,0-32.44-4.52c-24.35-.7-46.09-8.24-64.9-24.32-13.13-11.24-24.26-23.78-32.16-39.23-6.27-12.28-11.15-25-10-38.92a57,57,0,0,1,9.42-26.44c5.15-7.94,11-15.24,18.62-20.88,13.75-10.21,39.1-17.56,57.35-5.73,19.13,12.41,21.64,40.18,7.66,55.68-7.18,8-16.74,10.58-27.2,9.14-7.61-1-16.47-11.76-16.83-19.57-.05-1.08.1-2,1.16-2.5s1.9.12,2.52,1c.38.54.73,1.1,1.11,1.65,6.62,9.44,16.19,10.61,25.3,3.1,8.6-7.09,10-21.82,1.86-27.68-7.87-5.65-16.8-9.56-27.11-7.38a32,32,0,0,0-18.57,10.72c-3.11,3.65-6,7.47-9.07,11.1-8.46,9.94-8.78,21.37-6.27,33,4.75,22.08,17.48,38.14,37.65,48.65C526.55,493.88,541.11,496.24,556.5,495Z" transform="translate(25.74 48.11)"/><path d="M201.06,425.79c19.14.9,33.37-9.08,46-22,5.3-5.39,6.22-13.11,8.64-19.94,4.6-12.95,6.46-26.66,2.73-39.74-3.41-12-8.4-23.71-17.08-33.42-13.23-14.81-30.13-23.05-48.83-28.1s-37.72-7.74-56.36-12.66c-16.76-4.42-28.46-15.41-38.54-28.46A75.13,75.13,0,0,1,87.47,225c-6.86-16.2-6.06-32.6-1.48-48.85,3.13-11.09,10.67-19.78,19.64-26.91,10.73-8.53,22.62-13.76,36.85-12.28,15.45,1.6,27,9.36,35.74,21.75,9.67,13.72,17,28.53,20.36,45.13a56.51,56.51,0,0,1,.64,16.87c-.17,1.73-.61,3.79-2.58,3.7-2.47-.11-1.11-2.32-1-3.56.65-13.37-5.71-24.41-12.08-35.31a86.52,86.52,0,0,0-9.87-14.22c-15.09-16.92-41.31-20.63-59.86-3-8.87,8.44-14.41,17.49-14.75,29.7-.41,15,5.07,27.1,16.14,37.46,12.85,12,28.16,17.27,44.93,20.69,11.52,2.35,23,5.34,34.48,7.82,7.62,1.64,15.47,2.24,22.9,4.78,14.63,5,26.83,13.68,37.28,24.95,8.66,9.34,15,20.26,20.93,31.39,7.63,14.28,10.05,29.69,9.12,45.81-1.05,18.25-8.16,34-19.17,48.16a98.69,98.69,0,0,1-23.79,22.34c-6.91,4.53-15.13,5.85-22.92,8.1-17.07,4.91-32.44-.18-47.22-8.42-16-8.91-29.26-20.88-38.19-36.85-6.34-11.36-12.79-23-11.58-37,.64-7.4,7.55-18,14.41-20.7.91-.36,1.87-1,2.81-.21,1.12.88.28,1.7-.17,2.58-.91,1.76-1.68,3.59-2.55,5.38-2.87,5.89-3.91,11.7-1.42,18.24,3.59,9.43,5.44,19.58,13.07,27.09,10.56,10.4,21,20.82,36,24.84A47.75,47.75,0,0,0,201.06,425.79Z" transform="translate(25.74 48.11)"/><path d="M669.66,269.16c1.3,14.4-4.09,30.36-14.29,44.38-8.27,11.36-19.39,20.27-31.59,27.08-21.14,11.81-44.08,14.89-68,11.15-8.47-1.33-15.5-6.14-22.45-10.43-14.25-8.82-26.46-20.12-34.5-35.13a130.3,130.3,0,0,1-7.73-18.34,313.27,313.27,0,0,0-17.65-41.64c-6.2-11.88-15.52-21.81-25.77-30.78-10-8.77-21.78-13.44-34.43-15.88-10.82-2.08-21.35.61-31.78,3.91s-18.55,9.58-23.85,19.07c-2.4,4.3-3.65,9.24-5.43,13.89-.39,1-.45,2.56-2.08,2.28-1.44-.24-1.58-1.55-1.55-2.75.28-14.23,1.25-28.14,11.17-39.82,8.48-10,19.76-14.33,31.92-15.36,15.75-1.35,31.33,1.15,45.17,9.47C448,197,458.81,204,467.23,214.7c13,16.4,20.72,35.38,29.65,53.86,8.56,17.71,17.71,35.39,32.76,48.3C547.27,332,567.92,341,592,337.73c11.2-1.54,21-7.08,29.59-14.43,10.18-8.75,18.23-19.39,24.93-30.88,8.93-15.32,7.7-32,2.48-47.83-3.08-9.38-10-17.52-21.06-19.27-12.23-1.93-22.65,2.14-30.68,11.5-4.63,5.4-5,19.19-1.18,25.3,2.63,4.26,6.56,5.91,11.44,5.61,4.68-.28,7.74-2.75,9.37-7,2.59-6.82,3.16-14.64-2.83-17.9-2.82-1.53-4.19-1.27-5.59,1.23a21.83,21.83,0,0,1-1.29,2.66c-.69.89-1.59,2.06-2.87,1.47s-.76-2-.46-3.06c3.4-12.35,13.57-11.76,20.1-5.29,6.29,6.21,8,14.11,5.59,22.94a28,28,0,0,1-13.42,17.58c-13.67,8.26-31.78-1.07-34.79-15.68-2.57-12.5-2.35-25.18,5.08-36,7-10.32,17.63-16.49,29.88-18.91a46.08,46.08,0,0,1,30.85,4.76c9.18,4.87,13.86,13.94,18,23.09C669.09,246.54,669.42,256.19,669.66,269.16Z" transform="translate(25.74 48.11)"/><path d="M208.83,605.33a39.05,39.05,0,0,1,1.78-10.72c.33-1.07.82-1.92,2-1.74a1.74,1.74,0,0,1,1.4,2.27c-2.74,13.51,5.32,22.68,13.64,30.94,6,5.93,14.13,8.74,23,5.87,8.46-2.74,13.5-8.28,15.24-17.28,3-15.34-2.64-28.2-10-41-11.13-19.28-18.5-39.74-19.86-62.39-1-16.8,2.37-32.31,9-47.42.47-1.07,1.23-2.26.22-3.22s-2.17.23-3.12.68c-13,6.25-25.67,13.2-39.3,18.2-25.12,9.21-48.77,6.29-69.8-9.75-12.89-9.83-20.39-24.23-22.08-40.53-1.3-12.49-1.2-25.21,3.19-37.39.34-.93.52-1.94.94-2.83.76-1.64,1.5-3.81,3.78-3.08,2.07.66.66,2.51.55,3.89-.77,9.93,2.86,18.56,7.93,26.77a124.86,124.86,0,0,0,35.39,37.2c11.07,7.69,23.69,10.23,37.24,9.65A116,116,0,0,0,224,460c12.67-3.21,21.81-11.62,31.36-19.58,2.66-2.22,5.08-4.74,7.74-7,1.93-1.63,3.18-.77,3.16,1.51a12.71,12.71,0,0,1-1.07,4.84c-7.5,17.3-8.69,35.61-8.57,54.09.07,11.31.35,22.73,5.3,33.2a368.73,368.73,0,0,0,18.95,36c4.95,8,11,15.5,15,24,3.38,7.09,4.16,15.24,5.29,23.13,3.19,22.3-16.1,41.74-37,43.86-20.18,2.05-37.44-3.13-49.5-20.68C211.52,628.77,208.41,614.74,208.83,605.33Z" transform="translate(25.74 48.11)"/><path d="M425.46,396.59c-13.07,1.63-25.6-3.57-37.88-9.81-1.44-.73-2.8-1.4-2.24-3.25s2-2.07,3.65-1.67c7.35,1.84,14.71.57,21.72-1.1,18.8-4.46,31.1-16.7,38.79-34.17,5.68-12.93,5.14-26.34,3.21-39.7-2.35-16.22-8.35-31-19.77-43.26-13.85-14.86-33.82-17.48-49.62-6.5-5.24,3.63-6.8,9.51-8.94,14.63-6.69,16-5.4,31.48,5.1,45.77,1.72,2.34,4,4,6.19,5.72,2,1.6,2.84,3.52,1.77,5.64s-3.23.95-4.86.4c-14.83-5-24.13-15.6-28.83-30a73.92,73.92,0,0,1-2.9-36.33c4.35-24,24.95-46.71,53.09-46.61,12.4,0,24.22,2.29,34.52,9.35,8.82,6.05,15.75,14.16,21.92,22.9,11.21,15.87,19.71,33,24.49,51.9a76.46,76.46,0,0,1,2,27c-1.32,12.94-4.4,25.2-10.11,36.72a63.45,63.45,0,0,1-23.56,25.82C444.89,395.36,436,396.58,425.46,396.59Z" transform="translate(25.74 48.11)"/><path d="M344.42,434.35c26.06-.78,45.35,11.67,62,30.75,9.37,10.76,14.62,23.16,17.05,36.45,2.9,15.88-1.23,33.54-17,40.32-2.76,1.18-5.49,1-8.27.93-2,0-4.34-.08-5.21-2.2-.95-2.3,2-2.06,2.82-3.37a33.47,33.47,0,0,0,4.9-21c-.65-7.86-3.11-15.2-6.41-22.35-4.69-10.18-11.18-18.41-20.87-24.59-18.62-11.88-44.37-.51-47.29,21.32-1.94,14.43,4.23,26.71,10.56,38.7,4.6,8.72,8.83,17.41,10.16,27.19.84,6.21,2.34,12.3,3.38,18.46,1.72,10.2-.25,19.55-4.07,28.68-4.21,10-19,14.92-27.41,9.38-1.15-.75-3.2-1.37-2.09-3.26.95-1.62,2.28-.23,3.46.24,7.39,3,21.14-1.7,22.89-11.72a49.63,49.63,0,0,0-6.49-35.38c-9.74-16.17-20.64-31.64-29.22-48.51-8.06-15.85-10.49-32.62-5.43-49.53A44.62,44.62,0,0,1,317,443.2C325.07,436.73,334.16,434.22,344.42,434.35Z" transform="translate(25.74 48.11)"/><path d="M306.45,54.34A192.68,192.68,0,0,1,351.1,58.4c16.38,3.47,27,14.27,33,29.63,1.61,4.15,3.7,8.17,4.27,12.72.22,1.76,1.33,3.43,3.37,1.48,10.4-10,24.73-11.63,37.1-17.42,5.79-2.7,9.54-7.11,12.47-12.37,2.3-4.15,2-8.44-1.35-12S429.23,55.53,425,57.19c-1.6.63-3.54,3.37-5,.59-1.22-2.35,1.2-3.74,3.08-4.93,5-3.14,9.5-6.82,15.55-8.4,11.81-3.07,21,1.07,29.63,8.56,10.62,9.25,9,26.64,1.63,37.89-11.07,16.87-27.48,23.11-46.43,26.23-13.3,2.19-27.38,1.69-39.52,9.12-1.41.86-2.7,1.95-4.17,2.66-2.77,1.31-4.13-.22-4.43-3.19-1.18-11.71-2.47-23.36-10.3-33.16-8.43-10.55-19.3-17.11-31.53-22.43-9.72-4.23-19.88-6.94-29.73-10.63-2.85-1.07-6.23-.72-9.36-1.08-1.09-.12-2.63.08-2.6-1.57,0-1.28,1.38-1.2,2.31-1.36A62.74,62.74,0,0,1,306.45,54.34Z" transform="translate(25.74 48.11)"/><path d="M118.63,584.54c1.6-11,2-21.7,5.63-31.83A77.71,77.71,0,0,1,143,523.83c13.54-13.41,29-23.7,47.77-28.18,4.69-1.12,9.26-2.52,13.87-3.84A37.3,37.3,0,0,0,224,478.59c.84-1.06,1.58-2.47,3.12-1.93,1.73.6,1.63,2.21,1.44,3.78-.95,7.56-4.75,13.5-9.64,19.22-9.77,11.43-23.37,16.76-36,23.52-8.49,4.54-17.24,8.46-24.91,14.49-8.94,7-15.38,15.59-20.81,25.64-8.42,15.58-5.66,29.76,2.61,43.84,5.8,9.89,13.21,13.21,23.41,10,7.56-2.36,13.92-9.07,14.77-19.44a37.31,37.31,0,0,0,0-6c-.86-11.19-9.23-16.83-19.92-13.55-1.47.45-3.38,1.92-4.44-.15s1.31-2.61,2.5-3.59a43.52,43.52,0,0,1,13.23-7.73c6.8-2.33,12.56,1.11,17.94,4.86,9.36,6.54,10.26,16.1,8.75,26.22-2.42,16.19-9.8,29.25-25,36.68-12.9,6.3-27.13,3.64-36.06-7.51-9.27-11.58-15.19-24.88-16.29-40C118.56,586,118.63,585,118.63,584.54Z" transform="translate(25.74 48.11)"/><path d="M262.81,248.81c-2.81-.54-4.2-3.05-5.87-4.85-13.14-14.24-22.29-30.79-21.56-50.43.83-22.1,14.39-39.65,38.72-40.49,18.85-.65,32.54,7.38,43.08,22.57,10.2,14.69,13.83,31.29,16.56,48.51,3.39,21.27,2.68,42.74,4,64.09,1.05,17,5.23,32.32,15.34,45.92,5.05,6.8,11.28,12.26,20.11,13.41,3.76.48,7.64.43,10.62-2.84,1.18-1.29,3-2,4.34-.34,1.14,1.44-.07,2.95-1.08,4a12.12,12.12,0,0,1-7.68,3.17c-6.23.61-12.21.15-17.62-3.67-11.77-8.3-22.56-17.67-29.25-30.6-8.41-16.27-12.13-33.75-13.4-52.12-1.31-19-1-38.23-7.48-56.6-4-11.49-9.65-22-18.57-30.26-14.45-13.32-36.83-7.75-44.66,10.28-5.65,13-4.71,25.08,1.74,37.7,3.58,7,7.2,13.73,12.13,19.8C262.86,246.73,263.72,247.53,262.81,248.81Z" transform="translate(25.74 48.11)"/><path d="M512,133.71a53.15,53.15,0,0,0-1.25-10.88c-1-5.09-3.29-9-8.14-11.11-1.26-.55-2.76-1-2.07-2.75s2.27-1.46,3.79-.81a34.41,34.41,0,0,1,11.26,8c14.07,15,23,31.6,15.4,53.24-4.24,12-16,20.6-31,22.27-11.74,1.3-20-4.34-27.94-11.56-6.74-6.14-11.78-14.18-19.9-18.72-24.68-13.76-50.28-15.53-74.15,1.27a20.24,20.24,0,0,0-8.28,11.93c-.37,1.43-.43,3.9-2.81,3.22-1.82-.53-.95-2.49-.85-3.94,1-14.3,7.51-25.41,19.84-32.55,18.7-10.84,37.59-10.2,56.33.35,11.26,6.35,22.46,12.85,34,18.66,8.12,4.09,17.07,4.36,25.72,1.64,5-1.56,7-6.42,8.48-11C512.19,145.41,511.85,139.51,512,133.71Z" transform="translate(25.74 48.11)"/><path d="M498.28,397c.17,2.49-1.2,3.85-2,5.42-4.59,8.46-4.93,16.72-.46,25.6,3.82,7.57,8.31,14.74,14.81,19.82,16.73,13.09,41.5,22.66,62.21,4.32,5.7-5.06,7.09-11.87,8.46-18.68,1.68-8.27,2.13-16.75,4.11-25,4.26-17.65,21-35.79,40.73-37.45,5.27-.44,10.56-.76,15.83-1.17,1.48-.12,2.81-.12,3.05,1.62s-.69,2.38-2.39,2.32c-14.86-.49-23.22,9-31.16,19.73-7,9.44-9.12,20.36-11.62,31.36-3.62,15.85-9.67,30.55-20.94,42.79-13.6,14.78-30.1,20.37-49,13.86-16-5.5-29.13-15.64-37.48-31.05-4.77-8.81-9.46-17.53-9.24-28C483.29,413.09,490.89,399.8,498.28,397Z" transform="translate(25.74 48.11)"/><path d="M151.67,357.54c-1.51-10.84,1-20.7,5.32-29.94,3.59-7.72,10.67-12.48,17.83-16.79,2.56-1.54,5.23-2.9,7.86-4.32.79-.42,1.66-.55,2.21.29a1.39,1.39,0,0,1-.45,2.15c-3,1.07-3.51,4.84-6.6,5.79a6.2,6.2,0,0,0-1.94,1.54c-8.17,7.51-12.38,30.83-8.14,41.18,2.89,7.06,6.45,13.27,12.11,18.54,9.54,8.86,28.46,10.44,38.28,2,6.91-5.92,10.43-14.12,11.45-23.15.86-7.61,1.42-15.28-2.68-22.38-.66-1.15-2.38-2.74-.84-3.94,1.71-1.34,3,.66,4.11,1.73,14.35,13.54,18.15,33.22,10,51.22-5.83,12.94-14.15,23.21-28.7,26.62-13.42,3.13-25.55.45-36.31-8.43a94.64,94.64,0,0,1-14.5-14.29A41.11,41.11,0,0,1,151.67,357.54Z" transform="translate(25.74 48.11)"/><path d="M238.7,130.58c.74,8-4,16.46-11.5,23.36-8.85,8.15-28.33,6.21-34.9-3.56-11.54-17.15-11.2-35.42.43-52.73a47.54,47.54,0,0,1,13.93-13.18c14.21-9.3,25.39-21.2,33-36.35,2.54-5.06,1.19-10.34-.1-15.57-.46-1.87-2.72-4.68-.27-5.72s2.82,2.49,4,4.12c3.62,5,4,11.13,3.64,16.7a62,62,0,0,1-8.59,27.72c-6,10.38-15.21,17.89-22.23,27.29a76.53,76.53,0,0,0-10.55,19.1c-2.5,6.74-1,11.08,4.6,13.84,6,3,11.31,1.6,15.16-4a16.86,16.86,0,0,0,2.85-7.91c.54-5.44-.68-6.78-6.25-7-.94,0-1.72-.22-2.06-1-.5-1.16.29-1.91,1.25-2.33a10.16,10.16,0,0,1,8.24-.2C234.26,115.12,238.89,122.52,238.7,130.58Z" transform="translate(25.74 48.11)"/><path d="M433.74,646.64c1.29,7.17,2.26,8.15,7.05,7.14s8-6.72,6.23-11.77c-3-8.78-9.09-14.15-18.06-17s-17.24-.34-25.81,1.65c-13.44,3.11-24.79,11.07-37.62,15.56a63,63,0,0,1-40.62.54c-7.89-2.54-15.78-7-19.27-16-1.6-4.09-2.17-8,.2-11.88.8-1.31,2.44-2.79,4.16-1.49s-.09,2.17-.83,3.22c-2.17,3.05.76,4.6,2.31,6.14,8.48,8.42,19.12,10.94,30.64,10.36,10.1-.5,19.12-4.54,27.2-10.2,12-8.4,25.29-13.12,39.54-15.1,5.15-.71,10.56.31,15.83.76,3.93.33,7.85.21,11.81,1.21,13.22,3.36,27.82,19.91,25.92,36.51-.89,7.75-5.77,12-12.43,14.66-6,2.39-11.5.73-16.21-3.32A7.38,7.38,0,0,1,433.74,646.64Z" transform="translate(25.74 48.11)"/><path d="M527.25,244.71c2.5,4.62,5.46,5.18,9.18,3.66,4.27-1.74,6.56-5.06,6-9.34-1.13-8.27-4.95-15.17-12.9-18.82-8.53-3.92-17.7,3.8-16.54,14.11.89,7.91,1.86,15.89,4.7,23.4,8.35,22.15,22,39.89,43.36,51a22,22,0,0,0,12.48,2.75c9.69-1,19.53-1.42,28.62-5.55,1-.45,2.15-1.77,2.84-.11.58,1.41-1.06,1.88-2.06,2.31a132.23,132.23,0,0,1-27.47,8.53c-15.22,2.85-28.59-1.78-40.52-9.89-9.5-6.45-17.87-14.74-23.2-25.46-3.46-7-7.7-13.54-10.82-20.63-4.69-10.63-8.25-21.53-8.53-33.49-.25-10.45,5.31-16.9,13.51-20.61,19.9-9,35.71,1.92,40.47,21.81a31.57,31.57,0,0,1-.45,15.81c-1.76,6.35-11.06,10.53-16.74,7.28C526.39,249.89,526.39,249.89,527.25,244.71Z" transform="translate(25.74 48.11)"/><path d="M250.15,595.46c.09,7.91-2.83,12.53-7.59,13.74-5.64,1.43-11.33-1.89-14.73-8.49-3.09-6-6-12.14-9.58-17.91A66.19,66.19,0,0,0,194.37,560c-7.28-4.16-15.4-5-23.67-4.12-2.74.28-6.52,1.75-7.8-.92-1.41-2.92,2.51-4.54,4.43-6.39,4.39-4.24,9.92-6.66,15.65-8.38s10.78-4.29,16.17-6.43a28,28,0,0,0,14.79-13.46c1.05-2,2.32-4.07,4.84-3.35s1.9,3,1.87,5.07c-.12,8.55,3.39,16.14,6.45,23.86,3.68,9.32,9,17.72,14.29,26.17C246.21,579.68,249.31,588,250.15,595.46Z" transform="translate(25.74 48.11)"/><path d="M386.67,525.87c.07,10.6-3.5,20.5-5.66,30.69-2.39,11.26-6.12,22.06-10,32.83-3.73,10.39-8.4,20.18-17.62,27.14-3.6,2.73-7.53,3.22-11.7,3.42-.82,0-1.76.09-2.06-.93a1.64,1.64,0,0,1,1.39-2.21c13.18-2.62,15.51-14.28,18.77-24.11,6.84-20.69,11.88-41.9,11.74-63.93,0-7.8-.65-15.67-5.55-22.33a23.32,23.32,0,0,0-3.73-4c-3.11-2.59-6.51-3.36-10-.77-3.69,2.72-3.07,6.38-1.69,9.92a10.48,10.48,0,0,0,7.14,6.42c1.8.52,3.21,1.39,2.94,3.38-.32,2.39-2.39,1.64-4,1.83-7.27.89-12-3.41-15.85-8.46-6.24-8.11-6.83-20.54-1-28.9a16.85,16.85,0,0,1,16.86-7.4c10.54,1.55,18.37,7.37,23.33,16.74C385.71,506.1,387.22,513.7,386.67,525.87Z" transform="translate(25.74 48.11)"/><path d="M408.89,264.53c7.76.72,15.22,4,18.65,13.45.59,1.6,2.48,3,0,4.61s-3.09-.3-4.23-1.73a12.56,12.56,0,0,0-13.09-3.7,11.74,11.74,0,0,0-7.83,11.07c.1,4,2.22,7.21,4.78,10.12,6.79,7.73,11.64,16.2,10.26,27-.34,2.64-.93,5.24-1.37,7.86-.56,3.36-.39,6.56,1.49,9.61,3.37,5.46,7.5,6.06,12.18,1.6a12.7,12.7,0,0,1,3-2.59c2.41-1.12,4.2.1,4,2.52a24,24,0,0,1-2.09,8.1c-4.1,9-15.59,14.46-25.33,12.84-6.05-1-9.22-7.76-9.68-16.68-.28-5.41.67-10.92,1.4-16.33,1.24-9.18-2.44-16.52-9.07-22.06-6.94-5.8-9.12-13-8.1-21.32C385.68,274.17,393.93,265,408.89,264.53Z" transform="translate(25.74 48.11)"/><path d="M620.54,350.67a14.57,14.57,0,0,1-5.63,4.6C596.08,363.63,587,379.65,580.23,398c-4.35,11.83-5.66,24.41-10.41,36.16-5.82,14.42-20.94,20.5-34.4,12.79-2.45-1.4-5.06-2.5-7.57-3.8-.88-.46-1.81-1.1-1.49-2.29s1.47-1.17,2.47-1c4,.69,7.94-.44,11.84-.93,13-1.61,19.17-11.27,23.59-21.88,6.15-14.71,1.55-28.39-5.32-41.84-3.64-7.13-9.07-11.56-16-14.76-1.43-.67-3.74-1.41-2.87-3.33s2.93-.57,4.47-.22c14.81,3.33,29.67,6.32,44.79,2.12,9.38-2.61,18.65-5.62,28-8.48A3.19,3.19,0,0,1,620.54,350.67Z" transform="translate(25.74 48.11)"/><path d="M362.73,150.74c-.86,8.89-1.27,18.6-7.45,27.11-2.42,3.34-3.44,7.86-3.62,12.29-.05,1.37,0,3.5-1.76,3.72-2.14.25-1.62-2-2.1-3.29-1.55-4-.78-7.46,1.3-11.32,4.18-7.75,2.88-16.31,1.41-24.44-3.53-19.59-12-37-26.14-51-7.76-7.68-17.64-12.9-26.79-18.91-9.32-6.13-18.95-11.63-29.94-14.27-1.37-.32-2.69-1-2.38-2.66.36-1.88,2.11-1.49,3.27-1.19,19.69,5,40.67,6.18,58.21,17.85a79.61,79.61,0,0,1,30.47,37.63A72.94,72.94,0,0,1,362.73,150.74Z" transform="translate(25.74 48.11)"/><path d="M325,319.19c-6.18-6.74-12.29-13.52-18.52-20.19-16.21-17.32-27-38.14-37.57-59a59.19,59.19,0,0,1-6.52-26.93c.05-6.92,1.15-14.76,8.15-19.42,6.53-4.35,12.28-3.63,19.28,2.77,9.67,8.85,14,25.83,4.66,37.42-1.92,2.4-7.61,4-10.27,2.52-1.48-.79-2.19-2.48-.71-3,4.2-1.53,3.52-5.26,4.14-8.22.79-3.78-.2-7.61-1.28-11.28a6.21,6.21,0,0,0-6.44-4.59c-3.28.15-3.26,3.3-3.51,5.74-1.06,10.34,3.05,19.6,6.65,28.83,5.64,14.44,14.22,27.34,22.16,40.57,6.58,11,13,22,20.42,32.42C326,317.35,326.09,318.07,325,319.19Z" transform="translate(25.74 48.11)"/><path d="M297.14,114.21c16.88-2.14,42.27,18.67,46,36.9,2.38,11.65-.18,22.06-2.41,32.83-1.26,6.09-1.35,12.15-1.59,18.25,0,1.07.75,2.58-.9,2.93-1.35.29-2-1.07-2.53-2a16.09,16.09,0,0,1-1.49-10.61c2.92-12.84-2.25-24-7.29-34.84a49.39,49.39,0,0,0-27.86-25.73c-15.38-5.87-30.76-6.25-46,.41-1.8.79-4,2.4-5.06-.28s1.77-3.29,3.48-3.92c5.94-2.19,11.36-5.41,16.91-8.38C276.84,115.19,286.17,115,297.14,114.21Z" transform="translate(25.74 48.11)"/><path d="M131.45,276.41c21.35-2.32,30.89,21.35,25.48,38.38a38.2,38.2,0,0,1-18.28,22.52c-7.5,4.29-19.72,2.35-25.57-4.59-3-3.51-6.64-6.58-7.81-11.37-.45-1.85-.87-3.87.75-5.08s2.43,1,3.64,1.67c5.07,2.68,10.8,3.64,15.94,1.93,5.31-1.76,11.79-2.71,13.84-9.9,2.31-8.13-5.48-18.48-14-17.84-5.16.39-10.27,1.16-13.89,5.6-1,1.17-2.32,2.27-3.88,1.17s-.77-2.65-.2-4a42.11,42.11,0,0,1,10.76-14.75C122.06,276.54,126.76,276,131.45,276.41Z" transform="translate(25.74 48.11)"/><path d="M592.58,175.25c10.23,6.94,9.58,20,4.23,28.09-14.32,21.56-45,20-58.48-.17-6-8.94-6.19-19.24-1.68-29.46,3-6.71,7.77-11.43,13.89-15.07,3.28-2,15.93-1.34,18.87.92.79.61,1.6,1.34,1.37,2.46-.28,1.35-1.42.95-2.39,1.09-11.28,1.57-18.55,10-17.64,21,.83,9.94,9.26,19.7,20.88,19.41,9-.22,16-3.13,20.73-11.22,1.63-2.8,2.3-5.23,1.33-8.4C592.93,181.4,593,178.68,592.58,175.25Z" transform="translate(25.74 48.11)"/><path d="M568,602c-8.61,1.74-15.36-2.73-21.39-8.93-1.28-1.32-2.51-2.71-2.78-4.63-.22-1.5-1.86-3.37.28-4.41s2,1.55,3,2.35A17.44,17.44,0,0,0,564.61,589c16.81-6.38,21.73-14.24,24.5-31.77.63-4-1.4-7.82-3.58-11.18-1.44-2.23-3.66-2.61-6.1-1.29-.88.48-2,.88-2.68-.17s.29-1.86.89-2.65c3.14-4.07,7.47-3.52,11.3-2,11.66,4.47,25.69,18.44,20.78,34.59A36.37,36.37,0,0,1,595.29,594C586,600.47,578.14,602.22,568,602Z" transform="translate(25.74 48.11)"/><path d="M420.71,159.14c16.53.87,31.48,9.12,44.43,21.47,8.65,8.25,15.58,17.68,17.9,29.79a14,14,0,0,1,.39,2.46c0,2.42.83,5.6-2.2,6.44-2.87.8-2.83-2.6-4-4.24-10.8-15.67-23.34-28.89-42.42-34.88-12.7-4-25.54-5.57-38.65-6.25-5.82-.31-11.23,2-16.9,2.77-1.13.14-2.29,1-3.08-.28s.29-2.13,1.12-3A32.41,32.41,0,0,1,388.92,166,103.67,103.67,0,0,1,420.71,159.14Z" transform="translate(25.74 48.11)"/><path d="M659.26,406.24c-3,2.5-5.46.22-7.9.08-10.11-.56-17.36,5-22.67,12.16-6,8-10.37,17.29-10.89,27.88-.63,12.48,8.61,27.74,20.08,32.57,4.83,2,9.09-.14,13.53-1.34,1.25-.34,2.87-2.09,3.84,0,.66,1.44-1.11,2.22-2,3.1-14.71,14.65-37.29,6.93-44.88-9.67-7.79-17.05-5.43-33.64,3.17-49.61,3.69-6.86,7.65-13.75,14.62-18C636.2,397.42,646.5,398.29,659.26,406.24Z" transform="translate(25.74 48.11)"/><path d="M314.57,106c-.77,2.18-1.79,3.52-4.08,2.27-9.9-5.44-20.12-3.42-30.44-1.62A69.44,69.44,0,0,0,253,117c-2.68,1.78-5.06,1.77-6.71-2a25.36,25.36,0,0,0-7.73-9.63c-1.93-1.51-2.67-3.24.12-4.55,8.14-3.82,13.48-10.57,18-17.86,2.54-4.07,5.63-4.38,9.23-2.94,12.93,5.18,26,10.08,37.94,17.43,3.24,2,6.26,4.37,9.32,6.65A8.23,8.23,0,0,1,314.57,106Z" transform="translate(25.74 48.11)"/><path d="M461.17,617.85c1.05-16.35,6.56-24.46,18.57-27.93,5.39-1.56,10.44-1,15.16,2.31C501.64,597,507.7,602,509.22,611c1.09,6.46-1.47,11.69-3.87,17.11a2.62,2.62,0,0,1-3.36,1.45c-1.61-.6-1.47-2.06-1.06-3.39,2.48-7.94-1.58-13.48-7-18.31-3.39-3-10.63-1.77-14.95,1-7,4.5-5.05,11-4.14,16.93a13.21,13.21,0,0,0,9.65,11c1.64.51,3.33.95,3.37,3.06s-1.84,2.59-3.32,3.19c-3.85,1.57-12.71-1.67-16.2-6.55C464,630.26,461,623.44,461.17,617.85Z" transform="translate(25.74 48.11)"/><path d="M169.3,189.81c-4.23-2.05-7.27-5.4-12.37-6.05-10.36-1.32-18.09,3.5-25.05,9.75-10.77,9.68-12.19,22.24-9.3,35.69.32,1.48,1.11,3-.77,3.85a2.46,2.46,0,0,1-3.36-1.38c-4.27-13.44-11.07-26.47-4.41-41.29,6.06-13.5,20.59-22.51,36.75-18.52C160.14,174.16,166.41,180.45,169.3,189.81Z" transform="translate(25.74 48.11)"/><path d="M590.87,293.88c1.27.46,5.17-2.12,5.69,1.76.47,3.51-3.71,3.7-6.06,4.66-14,5.73-29.8-.77-39.34-9.82a99.53,99.53,0,0,1-16.28-20.59c-3-4.86-2.72-6.22,2.44-8.29,6.08-2.44,9-8,12.69-12.76.63-.82.25-2.75,2-2.31s.84,1.88.56,2.91c-2.17,8.21-.54,15.7,4.23,22.6,6.62,9.6,14.3,17.9,26.15,20.91C585.15,293.51,587.52,293.51,590.87,293.88Z" transform="translate(25.74 48.11)"/><path d="M444.78,321.84c.6,5-.92,9.56-2.21,14.19-.34,1.25-1,2.82-2.48,2.71s-1.85-1.78-1.81-3.11c.13-3.89-1.78-3.73-4.38-2.31-2.19,1.19-4.5,2.92-6.92,1.23-2.61-1.82-1.93-4.81-1.25-7.34,2.33-8.63.79-16.71-2.81-24.68-3.33-7.4-1.66-9.78,6.2-9.39,2.65.14,4.7-.34,4.47-3.68a2.25,2.25,0,0,1,1.78-2.62c1.71-.39,2.15,1,2.88,2.16,3.06,4.73,4.33,10.08,5.05,15.51C444.07,310.25,444.31,316.06,444.78,321.84Z" transform="translate(25.74 48.11)"/><path d="M316.56,291.43c-1.52.27-2-.63-2.56-1.47-9.52-13.82-16.61-28.95-23.77-44-1.31-2.77.4-4.74,2.34-5.87,8.08-4.68,9.68-12.55,10.61-20.75.19-1.66.05-3.15,2.18-3s1.71,2,1.88,3.41c1.38,11.39,1.37,22.84,1.82,34.27a51.78,51.78,0,0,0,3.64,16c2.41,6.41,2.84,13.2,4.2,19.81A4.34,4.34,0,0,1,316.56,291.43Z" transform="translate(25.74 48.11)"/><path d="M385.73,572c.38-6.12,7.53-12.93,13.22-12.57,8.11.51,16.67,9.15,16.09,16.24-.63,7.62-9.76,15.75-17.07,15.19C391.48,590.34,385.19,580.65,385.73,572Z" transform="translate(25.74 48.11)"/><path d="M197.63,332c9.27-1.43,13.54,7.61,14.27,14.47.65,6.09-6.09,12.06-13.11,12.26-9,.27-15.1-5.27-15-14.76C183.9,336.94,187.91,331.55,197.63,332Z" transform="translate(25.74 48.11)"/><path d="M640.89,433.56a13.16,13.16,0,0,1,13,12.8c0,8.83-6.3,15.65-14.15,16.19-6.06.42-11.71-9.13-11.72-15C628,439.44,633.42,433.6,640.89,433.56Z" transform="translate(25.74 48.11)"/><path d="M207.37,215.77c-.47-14.28-1.89-26.92-6.26-39.1-1.2-3.35-3.22-6.14-4.86-9.2-.6-1.12-1.58-2.42-.54-3.66s2.24-.23,3.26.08c5,1.52,9.75,4.08,15.4,3.38a55.66,55.66,0,0,0,6.75-1.38c.84-.21,1.76-.33,2.24.49a2,2,0,0,1,0,1.78c-6.51,6-6.52,14.61-8.91,22.21a90.58,90.58,0,0,0-3.73,25.53,7.43,7.43,0,0,1-.42,2.43c-.36,1-.42,2.65-2,2.34s-1.22-1.8-1.16-2.93A12.93,12.93,0,0,1,207.37,215.77Z" transform="translate(25.74 48.11)"/><path d="M474.63,139.92c.34-8.59,5.89-14.62,13.24-14.37a12.82,12.82,0,0,1,12.19,13.68c-.49,7.33-6.28,13.64-12.29,13.38C481.43,152.34,474.41,145.56,474.63,139.92Z" transform="translate(25.74 48.11)"/><path d="M514.89,343.31c0,7.12-6.57,13.9-13.48,14-5.36.09-11.51-6.81-11.55-12.95-.05-7.81,6.16-14.89,13-14.86C508.65,329.54,514.93,336.77,514.89,343.31Z" transform="translate(25.74 48.11)"/><path d="M435.29,403.94c6.42.49,12.47,7.59,11.9,14-.65,7.28-6.71,13.53-12.7,13.09-6.41-.46-12.41-7-11.81-12.86C423.65,408.66,428.31,403.42,435.29,403.94Z" transform="translate(25.74 48.11)"/><path d="M552.68,547.75c10.89.61,16.47,7.92,13,16.77-2,5.12-6.11,6.7-11,6.72-7.56,0-15.58-9.92-14.07-17.3C541.34,549.89,546.25,547.39,552.68,547.75Z" transform="translate(25.74 48.11)"/><path d="M574.81,169.35a10.37,10.37,0,0,1,10.66,10.7c0,5.92-7.36,14.53-12.4,14.49-5.62,0-12-6-12-11.21A14,14,0,0,1,574.81,169.35Z" transform="translate(25.74 48.11)"/><path d="M151.55,204.93c6,.06,11.31,6.07,11.24,12.66-.06,6.13-5.79,11.74-11.75,11.51-5.41-.2-10.77-7.6-10.68-14.72C140.43,209.08,145.41,204.87,151.55,204.93Z" transform="translate(25.74 48.11)"/><path d="M681.36,448.54c0,6.64-4.22,11.12-10.66,11.22-5.7.1-10.46-5.49-10.42-12.2,0-5.89,5.86-11.31,11.86-11.05C676.67,436.7,681.33,442.79,681.36,448.54Z" transform="translate(25.74 48.11)"/><path d="M357.27,579.55c-.56-6.82-1.19-13.63-1.67-20.45-.55-8-1.15-15.92-5-23.15a40,40,0,0,0-3.36-4.89,2.91,2.91,0,0,1-.29-3.67,2.73,2.73,0,0,1,3.5-1.08c3.42,1.32,6.15,4.38,10.5,3.48,1.44-.29,2.11,2,2,3.52-1.5,14.86-.63,29.92-3.66,44.65a6.75,6.75,0,0,1-.89,1.67Z" transform="translate(25.74 48.11)"/><path d="M217.32,246.34c0,6.07-4,10.64-9.43,10.78S197,251.62,197,245.65c0-6.52,3.9-12,8.69-12.15C211.26,233.31,217.34,240,217.32,246.34Z" transform="translate(25.74 48.11)"/><path d="M522.25,393.3c5.53.09,9.41,3.75,9.28,8.74-.17,6.81-4.23,11.18-10.18,11-5.19-.19-8.57-4.53-8.63-11.07C512.67,397.12,517,393.21,522.25,393.3Z" transform="translate(25.74 48.11)"/><path d="M113,307c0-5.09,4.61-8.65,11-8.6,4.86,0,7.63,3.07,7.65,8.4,0,5.48-4.49,9.72-10.29,9.69C116.14,316.43,112.92,312.8,113,307Z" transform="translate(25.74 48.11)"/><path d="M430.52,597c-6.41-.28-10.48-3.85-10.3-9.06.18-5,4.19-10,7.87-9.9,5.81.21,10.71,6.06,10.44,12.48C438.38,594.28,434.74,597.22,430.52,597Z" transform="translate(25.74 48.11)"/><path d="M606.61,151.91c-.13,5-4.76,9.59-9.63,9.5-4-.07-9-5-8.74-8.66s7.92-11.18,11.14-11C602.81,142,606.72,147.46,606.61,151.91Z" transform="translate(25.74 48.11)"/><path d="M418.58,64.84c6.74.22,9.11,2.27,9,7.8s-4.26,8.91-10.68,8.84c-4.72-.06-8.05-4.18-7.77-9.61C409.39,67.06,412.62,64.65,418.58,64.84Z" transform="translate(25.74 48.11)"/><path d="M158,606.23c-5.84-.24-8.33-3-8-8.85s3.84-8.89,9.85-8.58a7.51,7.51,0,0,1,7,8.05C166.49,602.4,162.7,606.42,158,606.23Z" transform="translate(25.74 48.11)"/><path d="M486.83,612.53q7.79,0,7.75,7.48c0,6.2-3.42,11-7.62,10.88-4.4-.17-8.2-4.61-8.28-9.65C478.58,615.36,481.23,612.54,486.83,612.53Z" transform="translate(25.74 48.11)"/><path d="M707.42,449.85c-.09,4.43-4.4,8.23-9.07,8-3.43-.17-8.7-5.83-8.54-9.18s5.42-7.46,9.47-7.44C703.08,441.26,707.5,445.94,707.42,449.85Z" transform="translate(25.74 48.11)"/><path d="M196.85,313.62c.3-5.56,3.58-8.95,8.27-8.56,3.84.31,6.75,4.48,6.45,9.23-.29,4.47-3.94,8.32-7.85,8.25C200,322.48,196.61,318.07,196.85,313.62Z" transform="translate(25.74 48.11)"/><path d="M536.25,542c-.08,4.52-2.83,7.33-7,7.13s-9.13-5.3-9.13-9.16c0-4.22,2.5-6.69,6.82-6.72C531.05,533.2,536.31,538.15,536.25,542Z" transform="translate(25.74 48.11)"/><path d="M464.66,587.3a7.3,7.3,0,0,1-8,7c-4-.2-7-3.76-6.88-8.13.09-3.29,4.59-6.7,8.55-6.48C461.82,579.89,464.76,583.43,464.66,587.3Z" transform="translate(25.74 48.11)"/><path d="M467.28,131.46c-.28,5.6-3,9.07-7.34,8.53-3.12-.4-6.93-.87-6.73-5.52s5.8-10.15,9.71-9.59C466.59,125.41,467.52,128.15,467.28,131.46Z" transform="translate(25.74 48.11)"/><path d="M505.85,645.2c-.27,2.6-1.34,5-5,4.88-4-.17-7.87-4.35-7.67-8.36.15-2.89.77-5.75,4.66-5.78C502.41,635.9,506,639.75,505.85,645.2Z" transform="translate(25.74 48.11)"/><path d="M92.29,305.23c0,4.34-2.6,7.67-6,7.69-3.87,0-6.65-2.78-6.53-7.15.1-3.64,2.57-5.66,6-6C90.07,299.35,92.28,301.4,92.29,305.23Z" transform="translate(25.74 48.11)"/><path d="M170.81,231.45c3.44,0,4.82,3.24,5,6.6.22,3.83-2.77,5.53-6.21,5.79-4.67.35-4.74-3.34-4.9-6.48C164.55,233.94,166,231.53,170.81,231.45Z" transform="translate(25.74 48.11)"/><path d="M623.14,128.6c-5,.23-7.53-1.72-7.34-5,.21-3.63,3.36-5.69,6.81-6.08,3.71-.41,5.55,2.27,5.43,5.55A5.78,5.78,0,0,1,623.14,128.6Z" transform="translate(25.74 48.11)"/><path d="M727,457.15c-3.64-.8-7-2-7.36-5.93s3.1-6.15,5.84-6.36c4-.3,4.69,4.19,5.53,7.1S729.24,456.23,727,457.15Z" transform="translate(25.74 48.11)"/><path d="M397.12,79.21c3.87,0,6.1,1.05,6.1,4.48,0,3.89-2.67,5.72-6,5.91s-5.22-3-5.31-5.48A4.56,4.56,0,0,1,397.12,79.21Z" transform="translate(25.74 48.11)"/><path d="M48.68,302.33c3.69.7,6,2.06,5.54,5.35A4.6,4.6,0,0,1,49,311.86c-2.67-.46-5.59-2.34-5.4-5.41S46.64,302.55,48.68,302.33Z" transform="translate(25.74 48.11)"/><path d="M444.5,127.19c-.15,3.09-1.7,5.15-4.83,5.13a3.69,3.69,0,0,1-3.82-3.84c.12-3.42,2.72-4.83,5.73-5C443.89,123.32,444.62,125.08,444.5,127.19Z" transform="translate(25.74 48.11)"/><path d="M478.7,575.33c-3.22-.35-4.48-2.14-4.3-4.79a4.32,4.32,0,0,1,4.78-4.09c3.8.17,3.25,3.86,3.5,6.17C483,575.4,480.25,575.09,478.7,575.33Z" transform="translate(25.74 48.11)"/><path d="M514.64,662.17c.61,3.35-2.14,3.52-4.34,3.71-2.43.21-3.71-1.31-3.28-3.77.4-2.25-.25-5.46,3.61-5.3C513.84,657,514.67,659.18,514.64,662.17Z" transform="translate(25.74 48.11)"/><path d="M647.19,98.52a5.75,5.75,0,0,1-5.35,4.45c-2.29.16-3.68-1.63-3.51-3.82.17-2.38,1.28-4.75,4-4.93S646.27,96.21,647.19,98.52Z" transform="translate(25.74 48.11)"/><path d="M747.38,454.42c-1.84-.15-3.34-1-3.52-2.86s.66-3.46,2.76-3.39a3.38,3.38,0,0,1,3.6,3.35C750.28,453.26,749,454.12,747.38,454.42Z" transform="translate(25.74 48.11)"/><path d="M520.54,679.65c-1.64-.52-3-1.34-2.93-3.35.08-1.85,1.33-2.57,3-2.58,2.47,0,2.27,1.87,2.26,3.49C522.82,678.64,522.41,679.83,520.54,679.65Z" transform="translate(25.74 48.11)"/><path d="M19.38,306c0,1.54-.76,2.23-2.13,2.2-1.77,0-2.85-1-2.76-2.77A2.32,2.32,0,0,1,16.67,303C18.45,303,19.09,304.48,19.38,306Z" transform="translate(25.74 48.11)"/><path d="M662.85,78.59a3.12,3.12,0,0,1-2.89,3.1,2.12,2.12,0,0,1-2.49-1.85c-.4-2.22,1.49-2.19,2.83-2.52S662.55,77.38,662.85,78.59Z" transform="translate(25.74 48.11)"/><polygon points="135.47 258.84 135.8 258.83 135.68 259.1 135.47 258.84"/><path class="cls-1" d="M313.62,388.79c.1-8.09,2.2-11.41,7.14-11.3A9.61,9.61,0,0,1,330,387c-.13,6.54-3.39,10.14-9,10S313.54,394.84,313.62,388.79Z" transform="translate(25.74 48.11)"/></svg>